<svg width="200" height="200" viewBox="0 0 200 200" xmlns="http://www.w3.org/2000/svg">
  <defs>
    <linearGradient id="gradient1" x1="0%" y1="0%" x2="100%" y2="100%">
      <stop offset="0%" style="stop-color:#4CAF50"/>
      <stop offset="100%" style="stop-color:#8BC34A"/>
    </linearGradient>
    <linearGradient id="gradient2" x1="0%" y1="0%" x2="100%" y2="100%">
      <stop offset="0%" style="stop-color:#2196F3"/>
      <stop offset="100%" style="stop-color:#03A9F4"/>
    </linearGradient>
  </defs>
  <rect x="0" y="0" width="200" height="200" fill="none"/>
  <g transform="translate(100,100)">
    <path d="M -60 -40 L -40 -60 L -10 -60 L -10 -40 L -60 -40 Z" fill="url(#gradient2)"/>
    <circle cx="-35" cy="-70" r="10" fill="url(#gradient2)"/>

    <path d="M 60 40 L 40 60 L 10 60 L 10 40 L 60 40 Z" fill="url(#gradient1)"/>
    <circle cx="35" cy="70" r="10" fill="url(#gradient1)"/>

    <rect x="-30" y="-10" width="60" height="20" fill="#FFC107" rx="5" ry="5"/>
    <path d="M -30 0 Q -20 -30 0 -30 T 30 0" fill="none" stroke="#FF9800" stroke-width="5" stroke-linecap="round"/>
    <path d="M -30 0 Q -20 30 0 30 T 30 0" fill="none" stroke="#FF9800" stroke-width="5" stroke-linecap="round"/>
  </g>
  <text x="100" y="110" font-family="Arial, sans-serif" font-size="32" font-weight="bold" fill="#000" text-anchor="middle">
    ServeLink
  </text>
</svg>
